<svg xmlns="http://www.w3.org/2000/svg" xmlns:xlink="http://www.w3.org/1999/xlink" width="500" zoomAndPan="magnify" viewBox="0 0 375 374.999991" height="500" preserveAspectRatio="xMidYMid meet" version="1.0"><defs><g/></defs><rect x="-37.5" width="450" fill="#ffffff" y="-37.499999" height="449.999989" fill-opacity="1"/><rect x="-37.5" width="450" fill="#ffffff" y="-37.499999" height="449.999989" fill-opacity="1"/><g fill="#000000" fill-opacity="1"><g transform="translate(25.366154, 172.540362)"><g><path d="M 42.222656 -80.976562 L 3.46875 -80.976562 L 3.46875 0 L 42.570312 0 L 42.570312 -15.386719 C 60.617188 -15.386719 75.308594 -30.191406 75.308594 -48.125 C 75.308594 -66.402344 60.386719 -80.976562 42.222656 -80.976562 Z M 42.222656 -80.976562 "/></g></g></g><g fill="#000000" fill-opacity="1"><g transform="translate(98.702606, 172.540362)"><g><path d="M -3.238281 0 L 99.023438 0 L 47.890625 -86.644531 Z M -3.238281 0 "/></g></g></g><g fill="#000000" fill-opacity="1"><g transform="translate(190.662418, 172.540362)"><g><path d="M 44.304688 -40.605469 L 65.707031 -77.738281 C 57.144531 -82.597656 47.082031 -84.445312 37.480469 -82.941406 C 17.003906 -79.589844 1.503906 -61.890625 1.503906 -40.605469 C 1.503906 -16.890625 20.589844 2.199219 44.304688 2.199219 C 68.019531 2.199219 87.109375 -16.890625 87.109375 -40.605469 Z M 44.304688 -40.605469 "/></g></g></g><g fill="#000000" fill-opacity="1"><g transform="translate(275.797535, 172.540362)"><g><path d="M 3.355469 -81.09375 L 3.355469 -0.117188 L 70.449219 -0.117188 L 70.449219 -27.417969 L 53.675781 -27.417969 L 53.675781 -30.886719 L 70.449219 -30.886719 L 70.449219 -50.320312 L 53.675781 -50.320312 L 53.675781 -53.792969 L 70.449219 -53.792969 L 70.449219 -81.09375 Z M 3.355469 -81.09375 "/></g></g></g><g fill="#000000" fill-opacity="1"><g transform="translate(29.0093, 265.612193)"><g><path d="M 59.574219 -40.371094 L 75.308594 -40.371094 L 75.308594 -80.976562 L 2.3125 -80.976562 L 2.3125 -40.371094 L 19.085938 -40.371094 L 19.085938 0.117188 L 59.574219 0.117188 Z M 59.574219 -40.371094 "/></g></g></g><g fill="#000000" fill-opacity="1"><g transform="translate(103.272076, 265.612193)"><g><path d="M -3.238281 0 L 99.019531 0 L 47.890625 -86.644531 Z M -3.238281 0 "/></g></g></g><g fill="#000000" fill-opacity="1"><g transform="translate(195.233044, 265.612193)"><g><path d="M 43.957031 -40.488281 L 43.957031 -80.976562 L 3.46875 -80.976562 L 3.46875 0 L 66.398438 0 L 66.398438 -40.488281 Z M 43.957031 -40.488281 "/></g></g></g><g fill="#000000" fill-opacity="1"><g transform="translate(261.282927, 265.612193)"><g><path d="M 3.46875 -80.976562 L 3.46875 0.117188 L 82.828125 0.117188 L 52.519531 -40.488281 L 82.828125 -80.976562 Z M 3.46875 -80.976562 "/></g></g></g></svg>